<?xml version="1.0" standalone="no"?>
<!DOCTYPE svg PUBLIC "-//W3C//DTD SVG 20010904//EN"
 "http://www.w3.org/TR/2001/REC-SVG-20010904/DTD/svg10.dtd">
<svg version="1.0" xmlns="http://www.w3.org/2000/svg"
 width="780.000000pt" height="780.000000pt" viewBox="0 0 780.000000 780.000000"
 preserveAspectRatio="xMidYMid meet">
<metadata>
Created by potrace 1.11, written by Peter Selinger 2001-2013
</metadata>
<g transform="translate(0.000000,780.000000) scale(0.100000,-0.100000)"
fill="#000000" stroke="none">
<path d="M3680 6673 c-585 -19 -1052 -215 -1345 -564 -132 -158 -207 -289
-268 -469 -120 -355 -109 -772 28 -1055 108 -225 267 -378 520 -500 232 -112
447 -176 1040 -310 716 -161 911 -217 1130 -325 226 -112 320 -217 377 -426
29 -106 32 -346 5 -444 -71 -266 -281 -463 -609 -571 -229 -75 -419 -102 -708
-102 -394 1 -687 75 -920 233 -269 183 -429 489 -465 893 l-7 77 -324 0 -324
0 0 -47 c0 -172 40 -428 90 -583 168 -518 597 -907 1170 -1063 543 -148 1220
-120 1761 73 137 49 364 160 474 232 146 96 286 246 378 403 184 318 230 858
106 1230 -64 191 -155 333 -305 474 -99 94 -176 147 -309 213 -215 107 -361
151 -935 282 -852 194 -1098 263 -1285 359 -107 55 -209 156 -253 250 -52 108
-65 182 -60 332 4 112 9 142 35 217 80 231 267 422 496 507 157 59 287 80 532
88 194 6 323 -3 480 -33 431 -83 693 -297 810 -662 29 -91 65 -251 65 -294 l0
-28 327 0 326 0 -6 123 c-26 503 -223 888 -572 1118 -353 231 -710 343 -1186
369 -96 5 -176 9 -179 8 -3 -1 -43 -3 -90 -5z"/>
</g>
</svg>
