<?xml version="1.0" encoding="utf-8"?>
<!-- Generator: Adobe Illustrator 18.1.1, SVG Export Plug-In . SVG Version: 6.00 Build 0)  -->
<svg version="1.1" id="Layer_1" xmlns="http://www.w3.org/2000/svg" xmlns:xlink="http://www.w3.org/1999/xlink" x="0px" y="0px"
	 viewBox="0 0 800 800" enable-background="new 0 0 800 800" xml:space="preserve">
<g>
	<path d="M753.9,797.8c24.2,0,43.9-19.7,43.9-43.9V46.1c0-24.3-19.7-43.9-43.9-43.9H46.1C21.8,2.2,2.2,21.8,2.2,46.1v707.8
		c0,24.2,19.7,43.9,43.9,43.9H753.9z"/>
	<path id="f" fill="#FFFFFF" d="M551.2,797.8V489.7h103.4l15.5-120.1H551.2V293c0-34.8,9.7-58.5,59.5-58.5l63.6,0V127.1
		c-11-1.5-48.7-4.7-92.7-4.7c-91.7,0-154.4,56-154.4,158.7v88.6H323.5v120.1h103.7v308.1H551.2z"/>
</g>
</svg>
