<?xml version="1.0" encoding="utf-8"?>
<!-- Generator: Adobe Illustrator 18.1.1, SVG Export Plug-In . SVG Version: 6.00 Build 0)  -->
<svg version="1.1" id="Layer_1" xmlns="http://www.w3.org/2000/svg" xmlns:xlink="http://www.w3.org/1999/xlink" x="0px" y="0px"
	 viewBox="0 0 800 800" enable-background="new 0 0 800 800" xml:space="preserve">
<g>
	<g>
		<defs>
			<rect id="SVGID_1_" x="4.4" y="4.4" width="791.2" height="791.2"/>
		</defs>
		<clipPath id="SVGID_2_">
			<use xlink:href="#SVGID_1_"  overflow="visible"/>
		</clipPath>
		<path clip-path="url(#SVGID_2_)" fill="#010101" d="M399.9,75.7c105.6,0,118.1,0.3,159.9,2.3c38.5,1.7,59.5,8.1,73.5,13.7
			c18.4,7.1,31.6,15.8,45.4,29.6c13.9,13.9,22.4,27,29.6,45.4c5.4,13.9,11.8,34.9,13.7,73.5c1.9,41.8,2.3,54.3,2.3,159.9
			S724,518.2,722.1,560c-1.7,38.5-8.1,59.5-13.7,73.5c-7.1,18.4-15.8,31.6-29.6,45.4c-13.9,13.9-27,22.4-45.4,29.6
			c-13.9,5.4-34.9,11.8-73.5,13.7c-41.8,1.9-54.3,2.3-159.9,2.3s-118.1-0.3-159.9-2.3c-38.5-1.7-59.5-8.1-73.5-13.7
			c-18.4-7.1-31.6-15.8-45.4-29.6s-22.4-27-29.6-45.4c-5.4-13.9-11.8-34.9-13.7-73.5c-1.7-42-2.1-54.4-2.1-160S76,281.8,77.9,240
			c1.7-38.5,8.1-59.5,13.7-73.5c7.1-18.4,15.8-31.6,29.6-45.4s27-22.4,45.4-29.6c13.9-5.4,34.9-11.8,73.5-13.7
			C281.8,76,294.3,75.7,399.9,75.7 M399.9,4.4c-107.5,0-120.9,0.5-163.2,2.4c-42.1,1.9-70.9,8.7-96.1,18.4
			c-26,10.1-48,23.6-70.1,45.6s-35.5,44-45.6,70.1C15.3,166,8.6,194.8,6.7,236.9s-2.4,55.7-2.4,163.2s0.5,120.9,2.4,163.2
			c1.9,42.1,8.7,70.9,18.4,96.1c10.1,26,23.6,48,45.6,70.1c22,22,44,35.5,70.1,45.6c25.1,9.7,53.9,16.5,96.1,18.4
			c42.1,1.9,55.7,2.4,163.2,2.4s120.9-0.5,163.2-2.4c42.1-1.9,70.9-8.7,96.1-18.4c26-10.1,48-23.6,70.1-45.6
			c22-22,35.5-44,45.6-70.1c9.7-25.1,16.5-53.9,18.4-96.1c1.9-42.1,2.4-55.7,2.4-163.2s-0.5-120.9-2.4-163.2
			c-1.9-42.1-8.7-70.9-18.4-96.1c-10.1-26-23.6-48-45.6-70.1c-22-22-44-35.5-70.1-45.6C634,15.5,605.2,8.7,563.1,6.8
			C520.8,4.8,507.4,4.4,399.9,4.4"/>
	</g>
	<g>
		<defs>
			<rect id="SVGID_3_" x="4.4" y="4.4" width="791.2" height="791.2"/>
		</defs>
		<clipPath id="SVGID_4_">
			<use xlink:href="#SVGID_3_"  overflow="visible"/>
		</clipPath>
		<path clip-path="url(#SVGID_4_)" fill="#010101" d="M399.9,196.7c-112.2,0-203.2,91-203.2,203.2s91,203.2,203.2,203.2
			s203.2-90.9,203.2-203.2C603.1,287.7,512.1,196.7,399.9,196.7 M399.9,531.7c-72.8,0-131.8-59-131.8-131.8s59-131.8,131.8-131.8
			s131.8,59,131.8,131.8S472.7,531.7,399.9,531.7"/>
	</g>
	<g>
		<defs>
			<rect id="SVGID_5_" x="4.4" y="4.4" width="791.2" height="791.2"/>
		</defs>
		<clipPath id="SVGID_6_">
			<use xlink:href="#SVGID_5_"  overflow="visible"/>
		</clipPath>
		<path clip-path="url(#SVGID_6_)" fill="#010101" d="M658.6,188.7c0,26.2-21.3,47.5-47.5,47.5s-47.5-21.3-47.5-47.5
			c0-26.2,21.3-47.5,47.5-47.5C637.3,141.2,658.6,162.5,658.6,188.7"/>
	</g>
</g>
</svg>
